HIERARCHY
ROOT Hips
{
	OFFSET -14.64140 90.27770 -84.91600
	CHANNELS 6 Xposition Yposition Zposition Zrotation Xrotation Yrotation
	JOINT Spine
	{
		OFFSET 0.00000 13.20850 -1.60436
		CHANNELS 3 Zrotation Xrotation Yrotation
		JOINT Spine1
		{
			OFFSET 0.00000 8.61716 0.00000
			CHANNELS 3 Zrotation Xrotation Yrotation
			JOINT Spine2
			{
				OFFSET 0.00000 8.61717 0.00000
				CHANNELS 3 Zrotation Xrotation Yrotation
				JOINT Spine3
				{
					OFFSET 0.00000 8.61717 0.00000
					CHANNELS 3 Zrotation Xrotation Yrotation
					JOINT Neck
					{
						OFFSET 0.00000 11.07920 1.10792
						CHANNELS 3 Zrotation Xrotation Yrotation
						JOINT Neck1
						{
							OFFSET 0.00000 7.08032 0.00000
							CHANNELS 3 Zrotation Xrotation Yrotation
							JOINT Head
							{
								OFFSET 0.00000 7.08031 0.00000
								CHANNELS 3 Zrotation Xrotation Yrotation
								End site
								{
									OFFSET 0.00000 0.00000 0.00000
								}
							}
						}
					}
					JOINT RightShoulder
					{
						OFFSET -0.01000 7.91373 5.19711
						CHANNELS 3 Zrotation Xrotation Yrotation
						JOINT RightArm
						{
							OFFSET -18.41580 0.00000 0.00000
							CHANNELS 3 Zrotation Xrotation Yrotation
							JOINT RightForeArm
							{
								OFFSET -29.11090 0.00000 0.00000
								CHANNELS 3 Zrotation Xrotation Yrotation
								JOINT RightHand
								{
									OFFSET -24.65040 0.00000 0.00000
									CHANNELS 3 Zrotation Xrotation Yrotation
									JOINT RightHandThumb1
									{
										OFFSET -5.35114 -0.85590 3.97906
										CHANNELS 3 Zrotation Xrotation Yrotation
										JOINT RightHandThumb2
										{
											OFFSET -4.52789 0.00000 0.00000
											CHANNELS 3 Zrotation Xrotation Yrotation
											JOINT RightHandThumb3
											{
												OFFSET -2.46976 0.00000 0.00000
												CHANNELS 3 Zrotation Xrotation Yrotation
												End site
												{
													OFFSET 0.00000 0.00000 0.00000
												}
											}
										}
									}
									JOINT RightHandIndex1
									{
										OFFSET -14.26970 0.00000 2.88139
										CHANNELS 3 Zrotation Xrotation Yrotation
										JOINT RightHandIndex2
										{
											OFFSET -5.48836 0.00000 0.00000
											CHANNELS 3 Zrotation Xrotation Yrotation
											JOINT RightHandIndex3
											{
												OFFSET -3.01859 0.00000 0.00000
												CHANNELS 3 Zrotation Xrotation Yrotation
												End site
												{
													OFFSET 0.00000 0.00000 0.00000
												}
											}
										}
									}
									JOINT RightHandMiddle1
									{
										OFFSET -14.26970 0.00000 -0.09147
										CHANNELS 3 Zrotation Xrotation Yrotation
										JOINT RightHandMiddle2
										{
											OFFSET -6.17441 0.00000 0.00000
											CHANNELS 3 Zrotation Xrotation Yrotation
											JOINT RightHandMiddle3
											{
												OFFSET -3.56743 0.00000 0.00000
												CHANNELS 3 Zrotation Xrotation Yrotation
												End site
												{
													OFFSET 0.00000 0.00000 0.00000
												}
											}
										}
									}
									JOINT RightHandRing1
									{
										OFFSET -12.69180 0.00000 -3.06433
										CHANNELS 3 Zrotation Xrotation Yrotation
										JOINT RightHandRing2
										{
											OFFSET -5.62556 0.00000 0.00000
											CHANNELS 3 Zrotation Xrotation Yrotation
											JOINT RightHandRing3
											{
												OFFSET -3.56744 0.00000 0.00000
												CHANNELS 3 Zrotation Xrotation Yrotation
												End site
												{
													OFFSET 0.00000 0.00000 0.00000
												}
											}
										}
									}
									JOINT RightHandPinky1
									{
										OFFSET -11.11390 0.00000 -6.03719
										CHANNELS 3 Zrotation Xrotation Yrotation
										JOINT RightHandPinky2
										{
											OFFSET -4.52789 0.00000 0.00000
											CHANNELS 3 Zrotation Xrotation Yrotation
											JOINT RightHandPinky3
											{
												OFFSET -2.46976 0.00000 0.00000
												CHANNELS 3 Zrotation Xrotation Yrotation
												End site
												{
													OFFSET 0.00000 0.00000 0.00000
												}
											}
										}
									}
								}
							}
						}
					}
					JOINT LeftShoulder
					{
						OFFSET 0.01000 7.91373 5.19711
						CHANNELS 3 Zrotation Xrotation Yrotation
						JOINT LeftArm
						{
							OFFSET 18.41580 0.00000 0.00000
							CHANNELS 3 Zrotation Xrotation Yrotation
							JOINT LeftForeArm
							{
								OFFSET 29.11090 0.00000 0.00000
								CHANNELS 3 Zrotation Xrotation Yrotation
								JOINT LeftHand
								{
									OFFSET 24.65040 0.00000 0.00000
									CHANNELS 3 Zrotation Xrotation Yrotation
									JOINT LeftHandThumb1
									{
										OFFSET 5.35114 -0.85590 3.97906
										CHANNELS 3 Zrotation Xrotation Yrotation
										JOINT LeftHandThumb2
										{
											OFFSET 4.52789 0.00000 0.00000
											CHANNELS 3 Zrotation Xrotation Yrotation
											JOINT LeftHandThumb3
											{
												OFFSET 2.46977 0.00000 0.00000
												CHANNELS 3 Zrotation Xrotation Yrotation
												End site
												{
													OFFSET 0.00000 0.00000 0.00000
												}
											}
										}
									}
									JOINT LeftHandIndex1
									{
										OFFSET 14.26970 0.00000 2.88139
										CHANNELS 3 Zrotation Xrotation Yrotation
										JOINT LeftHandIndex2
										{
											OFFSET 5.48836 0.00000 0.00000
											CHANNELS 3 Zrotation Xrotation Yrotation
											JOINT LeftHandIndex3
											{
												OFFSET 3.01859 0.00000 0.00000
												CHANNELS 3 Zrotation Xrotation Yrotation
												End site
												{
													OFFSET 0.00000 0.00000 0.00000
												}
											}
										}
									}
									JOINT LeftHandMiddle1
									{
										OFFSET 14.26970 0.00000 -0.09147
										CHANNELS 3 Zrotation Xrotation Yrotation
										JOINT LeftHandMiddle2
										{
											OFFSET 6.17440 0.00000 0.00000
											CHANNELS 3 Zrotation Xrotation Yrotation
											JOINT LeftHandMiddle3
											{
												OFFSET 3.56744 0.00000 0.00000
												CHANNELS 3 Zrotation Xrotation Yrotation
												End site
												{
													OFFSET 0.00000 0.00000 0.00000
												}
											}
										}
									}
									JOINT LeftHandRing1
									{
										OFFSET 12.69180 0.00000 -3.06433
										CHANNELS 3 Zrotation Xrotation Yrotation
										JOINT LeftHandRing2
										{
											OFFSET 5.62556 0.00000 0.00000
											CHANNELS 3 Zrotation Xrotation Yrotation
											JOINT LeftHandRing3
											{
												OFFSET 3.56744 0.00000 0.00000
												CHANNELS 3 Zrotation Xrotation Yrotation
												End site
												{
													OFFSET 0.00000 0.00000 0.00000
												}
											}
										}
									}
									JOINT LeftHandPinky1
									{
										OFFSET 11.11390 0.00000 -6.03719
										CHANNELS 3 Zrotation Xrotation Yrotation
										JOINT LeftHandPinky2
										{
											OFFSET 4.52789 0.00000 0.00000
											CHANNELS 3 Zrotation Xrotation Yrotation
											JOINT LeftHandPinky3
											{
												OFFSET 2.46976 0.00000 0.00000
												CHANNELS 3 Zrotation Xrotation Yrotation
												End site
												{
													OFFSET 0.00000 0.00000 0.00000
												}
											}
										}
									}
								}
							}
						}
					}
					JOINT pCube4
					{
						OFFSET 0.00000 10.91090 1.10792
						CHANNELS 3 Zrotation Xrotation Yrotation
						End site
						{
							OFFSET 0.00000 0.00000 0.00000
						}
					}
				}
			}
		}
	}
	JOINT RightUpLeg
	{
		OFFSET -9.98441 0.00000 0.00000
		CHANNELS 3 Zrotation Xrotation Yrotation
		JOINT RightLeg
		{
			OFFSET 0.00000 -42.11790 0.00000
			CHANNELS 3 Zrotation Xrotation Yrotation
			JOINT RightFoot
			{
				OFFSET 0.00000 -45.00020 -0.00001
				CHANNELS 3 Zrotation Xrotation Yrotation
				JOINT RightForeFoot
				{
					OFFSET 0.00000 -3.74820 0.00000
					CHANNELS 3 Zrotation Xrotation Yrotation
					JOINT RightToeBase
					{
						OFFSET 0.00000 0.06325 14.43120
						CHANNELS 3 Zrotation Xrotation Yrotation
						End site
						{
							OFFSET 0.00000 0.00000 0.00000
						}
					}
				}
			}
		}
	}
	JOINT LeftUpLeg
	{
		OFFSET 9.98441 0.00000 0.00000
		CHANNELS 3 Zrotation Xrotation Yrotation
		JOINT LeftLeg
		{
			OFFSET 0.00000 -42.11800 0.00000
			CHANNELS 3 Zrotation Xrotation Yrotation
			JOINT LeftFoot
			{
				OFFSET 0.00000 -45.00070 0.00000
				CHANNELS 3 Zrotation Xrotation Yrotation
				JOINT LeftForeFoot
				{
					OFFSET 0.00000 -3.74824 0.00000
					CHANNELS 3 Zrotation Xrotation Yrotation
					JOINT LeftToeBase
					{
						OFFSET 0.00000 0.06325 14.43110
						CHANNELS 3 Zrotation Xrotation Yrotation
						End site
						{
							OFFSET 0.00000 0.00000 0.00000
						}
					}
				}
			}
		}
	}
}
MOTION
Frames: 4
Frame Time: 0.050000
-0.040199225020479984 -0.015840828784209067 0.045455834299923614 -0.033569489313880256 0.015664848928032906 -0.0026584521030647377 -3.2255862302614196 -0.07142124714963607 -0.8026842214912501 -1.0103032780684265 3.7447095900270218 0.402585358547206 -1.2709246051522034 -1.9483449508661705 -0.0989359423905751 -0.31067224684325 0.3454801815844375 -0.64037346084394 0.2911882267313766 12.274330177368691 -0.2637832891505284 0.0720916007349533 -1.1697944082287213 -2.8718222168423764 0.4769986917968723 -17.353716818674954 -0.3040054925721811 -5.321390279708181 1.987139808321891 -14.663059761732924 71.87447848725746 30.923252436078076 11.290661215932708 1.3123713264319776 3.6296578840269835 91.24474611135035 17.308609923778047 -0.6444286926632115 -4.363673015826785 4.549768149138822 -0.15467478437425272 -1.6256004819170966 0.01375951566215516 0.049312758619789315 -56.21335622783725 0.007900896396306183 0.004720367026961059 -56.2237798023151 -38.79579518080234 -0.03821074339289022 -0.005680807522450579 -0.014718828891362244 -0.04156110251498335 -0.013445853809559932 -0.0448677629062551 0.04119040429129834 0.01502919416640066 -36.6475786754319 0.03391391151648121 0.022648197800226828 0.00039793357507968277 -0.02141909456201188 -0.015564254280227372 -0.049015009829698586 0.0052459704236377585 -0.04378581068527421 -19.739871458025632 0.030780184700502762 -0.04269210802959086 0.04873199803246873 -0.027177082340198257 -0.02573207009254972 0.027491506935730464 0.04852750659367166 -0.017009046421978705 24.06030035860318 0.008665559619088395 0.04132005187263325 28.882982934256816 -0.030981721539551123 0.0029660814128547796 28.866745543672465 0.010230629978898037 0.031430663606082127 4.852614670702337 1.1252150646395955 13.194886267111904 -74.0084134422467 30.61978804508758 -3.616405806259502 1.4310603496849443 -8.04437933958238 -40.63880915035836 -15.617089872628444 -2.369200328642531 5.528373570208997 -0.4541951691068766 0.0521215230039245 -8.117616397728334 -0.0239227184918847 -0.013399692591873635 44.59447205297503 0.04406567528156662 0.004422784590763589 44.575294223503114 12.460264046735727 0.0448527179385899 0.021421472726508694 -0.029815644700273095 0.044019601604116616 0.04807158598100303 0.03723709197255735 -0.029087566102509316 0.008395056493883064 11.116526710351947 0.01204269507642747 -0.023087684139313506 0.02616732445172833 0.030514491802343585 -0.025966368048446084 -0.0042491408729161415 -0.01672494154312326 -0.007766587668015612 4.751262571527053 -0.028682312818801358 -0.036036296258811724 -0.0025929531593075843 0.03957265617547897 0.04913170631330878 0.0297592996318524 -0.0323973604538137 0.013413480408354645 -5.596962663964855 -0.007233143172232874 0.007430940776771737 -6.727252896886159 0.016896912065325603 -0.03191652429590038 -6.761094604858387 -0.002773863348683888 -0.03270215286918775 -0.010380426660940542 -0.0006703651476378585 0.02377822627020151 8.005846937706577 3.5015489399641524 -19.17667904149439 0.0009386295359507189 10.379847132223842 0.028569039538860776 -5.645396398505604 -15.632357113997958 3.2356450661563514 -0.009428036771546482 0.010121775779769837 0.03993381729986278 0.040297588333196056 4.677282173661621 0.0008137579762157395 12.437985161347433 -8.250297634646099 6.905522794591891 -0.03492036761042928 46.40807135077095 -0.044998327457996236 -4.27634411203424 -14.783041305732658 -3.8472739011844292 0.007982721915790497 -0.027968065677485172 -0.046535699407392994 -0.018958682436468834 -10.72355637337043 0.04802331343986359 
-0.003558341954066501 -0.02956370734068253 -0.030274380913477658 -0.04565407106299249 -0.03462197548680681 0.00920557368516717 -3.1427675793703216 -0.1954658486733333 -0.7995997595045056 -1.0206306622191514 3.700267257027614 0.4364205592761899 -1.320305213754402 -1.941895770655903 0.019155007319704667 -0.181522634762515 0.28540773791995533 -0.6262013265395837 0.35912005371110817 12.09088245786063 -0.7351044637850105 0.1252174933409079 -1.272557804030893 -3.805451498519834 0.6408856742510733 -17.361554752796955 -0.305433943414855 -5.3278682231465755 1.9795036523975091 -14.579840685011545 70.8552202520045 31.377252253364812 11.840608180409063 2.0176758136416417 3.5186795106683695 91.39995195474775 16.597403512012797 -0.5933179034384719 -4.1686421628170685 4.548738169371187 -0.08164171316195731 -1.572119735264313 -0.01718746013831098 0.02877697141214851 -56.24628979573942 0.04402741198666747 -0.01194663019912301 -56.228260909668684 -38.76989619952767 0.033514481223564714 0.031177429346688466 -0.04475088564326209 -0.014657750888196406 0.013743085257490621 -0.019992813182964052 -0.031807915455729543 -0.014980592937752111 -36.68242031984223 -0.00361870906859931 -0.0010876653677081834 -0.032031600011129424 0.039274499521659234 0.046950364724671886 -0.01888371064642421 0.004671670982716735 -0.005701495889741714 -19.708498046619386 0.005517781479773852 -0.0025526215647380265 -0.032770392683825096 -0.044244381502410834 -0.004293903246161219 -0.020304214751883338 0.041634844964757806 0.04859071399553751 24.03566399375432 2.389685353795429e-05 0.033480405761318784 28.88054738150452 0.03905941977333623 0.025960638034388986 28.826107677165396 -0.003597039997785727 -0.037442842147716184 4.636509836915757 1.1176816152299995 13.037257598464377 -73.89529090079022 31.014667925926208 -3.3285950489843255 0.56040559601958 -7.684888199966844 -40.59851099873517 -15.551058889888203 -2.234183816424203 5.262300019859689 -0.47939840464130573 0.06614724454059076 -8.074544310119055 -0.02479286674982441 0.0025216578127138633 44.52362126545685 -0.04024594270284717 -0.02375597353831953 44.56627735813756 12.497735576063608 -0.031755842168079314 0.017694261237117655 0.0317391071598105 0.019684252242171768 0.03494361619592467 -0.036255953793928514 0.04037903561803489 -0.03734981647117988 11.08341760214172 -0.03489712268178156 -0.009749045915702968 -0.03729492839377089 -0.011138575889971327 -0.025480637088885982 -0.028737300948756803 -0.011974397829487688 -0.04578308641025287 4.751703244453012 0.032157458760554064 0.02561128379184152 0.03413400309298198 -0.04805579961168293 0.042996803413475095 0.020771846316653367 0.010224147492091655 0.013248313487744507 -5.622144777512377 0.011154143672180188 0.030782307535468796 -6.7080922897366975 -0.01974210150504315 -0.039081824235184554 -6.683060973061196 0.0138876916566091 -0.0418855725358445 0.00026891233424262935 -0.021100505102832595 0.03858776740796899 8.071435002157237 3.5203017919340183 -19.183506779277767 -0.03514319351139247 10.394415054163687 0.03235604442484005 -5.636569822317721 -15.67460822734564 3.1698532999857996 -0.00686788434066183 -0.008201743088259652 -0.006467870297422358 0.02240823480747583 4.65525871808602 -0.04643010400371713 12.491695530961682 -8.270022589630063 6.880230682442596 0.048126783229055545 46.40368847985181 0.027218173916695152 -4.364683223472461 -14.733735626831768 -3.8525196024222863 0.02353679182000796 0.04175201692136149 -0.007848620299200946 -0.0014903190137583414 -10.70687418171429 -0.002407878051599751 
-0.00561808767518356 -0.026641793605604182 0.008110407872198175 0.040576075285518945 0.00996235005778579 -0.008705063683292847 -2.9580318446776794 -0.3162901634837315 -0.8628515654070446 -1.0337558290336692 3.7437476487086183 0.41314536641605243 -1.2992964238193485 -1.934860819800784 0.06384751060194846 -0.07052547266756506 0.29316211686986116 -0.6492093112331178 0.5157962213948774 11.942211006592522 -1.0357795510830676 0.15474418293402936 -1.2523665493104845 -4.849253489567506 0.7163284105097846 -17.374629437014708 -0.45394674896714077 -5.333634979072932 1.9016268125162996 -14.546475047145758 69.78192394001309 32.080485780951236 12.512272714774262 2.188598548371147 3.2986875690890463 90.57284886800626 16.17238516264653 -0.5728719589010338 -3.9495994904842093 4.528994159058753 -0.10346327432292363 -1.6227142959529757 -0.00367256115874888 -0.005040609156484599 -56.22803404893186 -0.013953929342694365 -0.03649425217015342 -56.2080113430019 -38.81307696278302 0.01615847320863375 -0.04105083979063358 -0.012619284105433531 0.013807040258373924 0.017338518583978276 -0.0074747730471510804 -0.01252981288532702 0.035665835905629814 -36.661466341648634 -0.010662091990868133 0.02604591191389545 -0.028926016635932746 -0.025840632571832625 0.02055649230246844 0.021423066225558753 0.03683409970782304 -0.024573335493785743 -19.753041747422973 0.03122902755115793 0.008740082979528 -0.012393130272239315 -0.012998832788810881 -0.017673527105516954 -0.00430843354119213 -0.04297114978837 0.02607028453269187 24.08769651306278 -0.03800510676262339 0.0033569343517547597 28.835559599297223 0.02169967916299162 -0.01963765931632892 28.853626186793605 -0.0038329881519288843 -0.03411964367329182 4.331906865382505 1.0402588072681627 13.043435454608762 -73.59732753021268 31.37587200919602 -2.7585780499590467 0.414049705151895 -7.642263095372967 -40.770140686663424 -15.359337058480559 -2.025298031892622 4.955561637182067 -0.46403860335942304 0.051909671196086915 -8.105621998441459 -0.02859114903223907 0.04994715056011419 44.56126701125204 -0.014782047386076148 0.04872288156932133 44.60593919794428 12.49437598146243 0.021368054440483578 -0.00900745617301378 0.03650357046551374 0.02748766695584363 0.011921747301080289 0.04691074178311565 -0.011389542485331338 0.04695241252884766 11.066336612584799 -0.019646237297668213 -0.034380670526601 -0.031250345067173696 -0.009372758885866996 -0.04628488375419624 0.03864802162984454 0.03128619780646564 0.010287185743989872 4.794371027215271 -0.048119981149077916 0.008977775338835267 -0.020116225183643772 0.02678586859828035 -0.011501682187672883 0.004102548617546518 -0.0030111502208385733 -0.04016581511261572 -5.6282384593580455 0.013801578232156938 -0.011336483151449183 -6.675405904477157 0.0075703887443162535 0.04435437912435498 -6.738607874174695 -0.02941827537163949 -0.032595856215829326 0.04225797852432343 0.002400497051489344 -0.037061210893361035 8.013078351978628 3.5042700962744764 -19.177764213532033 -0.030522005148777877 10.374077089127784 -0.032805643039813995 -5.610817778567902 -15.652368164969122 3.1798285300732285 0.03738179207731306 0.023959249147390765 0.012799370874203348 0.011737355794026502 4.664541592389442 0.0007128363650238277 12.4808956200063 -8.25297539069056 6.847462509601478 0.04214279649884519 46.34003631746869 0.03418687340850772 -4.298909931085017 -14.751899617399014 -3.838695188163307 0.003032496661022355 -0.014360208051179862 0.0352548455111197 -0.032927068686830326 -10.79194961291695 0.033462882167127395 
-0.029099001311972274 -0.012851214294282383 0.015371453164090252 0.034102771468835204 0.020335297515050678 -0.01884080820928513 -2.8728950268702267 -0.39308575528959755 -0.847118164832941 -0.9688209855839044 3.7799479532165705 0.39607552678369534 -1.287335200377999 -1.905457221478377 0.2433148231157248 0.046766764109061484 0.315748994570329 -0.646489207937568 0.5643605406545268 11.926046845682148 -1.3042450774478578 0.07873144538779811 -1.3226489857215584 -5.692118392687806 0.7238083406254818 -17.386941898578602 -0.5213010327125535 -5.455864186168664 1.9148056624820713 -14.431970240684825 69.05519201638778 32.97174622064078 13.703762955986027 1.9783123566067309 2.919684129896097 90.63104387033039 15.828123719520276 -0.597230731291513 -3.748052784355967 4.54360567328155 -0.15136392428475876 -1.5967609019775808 -0.024587101013318367 -0.04148464812683778 -56.245107005122875 0.044109980184122995 -0.038226116948457116 -56.24528177824057 -38.776706851029886 -0.01976426650755701 -0.0337789438941338 -0.028880646039215124 0.04282191852972405 -0.01506920334932564 0.026786740888902927 -0.018663845054982153 0.0192111509419174 -36.69658948528603 0.04025866138014796 0.0061712672655868375 -0.00357761588984871 0.047550437174734866 0.041064534596844914 0.011340220504965724 -0.007948712968200124 0.003403451504399812 -19.769656005615467 -0.0003992758983569797 0.01775690006573523 -0.03574963639592633 0.03813765242329657 0.010639082988032534 -0.03716893415214938 -0.03044412576576475 0.006631182896903677 24.06311449176705 0.0021232893107080665 0.025818641181655003 28.837494280094006 -0.006704855363585233 -0.005520815781590106 28.855941241485436 0.00020874123589782777 0.03241123811210544 4.227680450073575 0.9525631765331917 12.952082053537813 -73.40531094294485 31.41969838748495 -2.4269382298153745 0.5618975627032824 -8.019457964506282 -40.990826707509115 -15.204137860159058 -1.8437014334596349 4.65027096805818 -0.5237738467398362 0.07812595343857436 -8.112429997513138 -0.04986253970000087 0.016436136684069187 44.55359229641081 -0.008743251906331677 -0.025869964859752716 44.58191951599932 12.451325648260722 0.036192330348227816 0.018692806145155064 -0.028672501014789846 -0.039313837246178915 0.01184679422434111 -0.02997571467120351 -0.04347984568016887 0.01965399804712794 11.114947699240085 -0.01947470465960636 0.039493629906852255 -0.040459231283164525 -0.004804721327011575 -0.02482386669246511 0.004193488422287016 0.044974999906549046 -0.03507727806021037 4.772064324670268 0.04415479775738259 0.0063874234114722735 -0.0343266924018953 0.025572038516475538 -0.013273313735616373 0.03994722339952238 -0.00893728309789017 -0.03784708970986127 -5.610987361227733 -0.022612542891652126 0.020216902350732976 -6.716625224844395 0.025492526139623627 0.009066424059846565 -6.705374127555692 0.017704940543226758 -0.04879578794706464 0.03741614117085892 0.028470847516457957 0.02695524429439455 8.027033502714684 3.510296675245996 -19.226761722955995 0.0020165896111420363 10.420145649960128 0.027527307317814997 -5.622981731568906 -15.66298453675173 3.1869600487690426 0.03775069527417602 0.029188634322173463 -0.015430085628224595 -0.04514323255912496 4.743999842419815 -0.031109803373313375 12.476636545508605 -8.191335529313694 6.8854217489077065 0.0002513553297495072 46.382703405631176 0.013432437181692937 -4.317081046165028 -14.718225772441318 -3.8573269544265707 0.034579752396020035 0.0027624871805233724 -0.030026908397962508 -0.04783671441433768 -10.76465577260107 -0.03974344268074817 
